<?xml version="1.0" encoding="utf-8"?>
<!-- Generator: Adobe Illustrator 24.0.2, SVG Export Plug-In . SVG Version: 6.00 Build 0)  -->
<svg version="1.1" id="Layer_1" xmlns="http://www.w3.org/2000/svg" xmlns:xlink="http://www.w3.org/1999/xlink" x="0px" y="0px"
	 viewBox="0 0 529.5 595.3" style="enable-background:new 0 0 529.5 595.3;" xml:space="preserve">
<style type="text/css">
	.st0{fill:#15489C;}
	.st1{fill:#DF0023;}
	.st2{fill:#FFFFFF;}
	.st3{fill:#228B22;}
	.st4{fill:#545454;}
	.st5{fill:#EC5A00;}
	.st6{fill:#6A2875;}
</style>
<g>
	<g>
		<path d="M71.6,198.6c1.4,0.2,3.3,0.4,4.3,0.4c0.4,2.2,0.4,7,0.1,9.5c-0.3,2.4-1,6.6-2.9,9.5c-2.8,4.3-7.3,6.5-11.8,6
			c-5.2-0.6-8.5-3.6-10.4-7.1c-1.9-3.6-2.1-7.4-1.7-11.1c0.4-3.1,1.3-6.9,1.9-8.1c-0.6-0.2-2.6-0.9-3.3-1.1l-0.1-0.9
			c1.4,0.4,7.8,1.5,11.2,1.8l-0.5,0.8c-1.3-0.1-2.6,0-3.4,0c-1.2,0.8-4,3.1-4.6,9.1c-0.7,6.4,3.5,11.1,9.3,11.8
			c6,0.7,14.2-3.5,15.1-11.4c0.1-0.9,0.2-3.1-0.4-4.7c-0.5-0.1-1.8-0.3-3.6-0.5l-1.9-0.2c-1.1-0.1-2.3-0.2-2.9-0.2
			c-0.2,0.7-0.6,3-0.8,3.6l-0.8,0.1c0.3-1.9,0.7-4.7,0.8-6c0.2-1.8,0.6-5.3,0.6-5.7l0.7,0.3c0,0.3-0.1,2.4,0,3.2
			c0.6,0.2,3,0.5,4,0.6L71.6,198.6z"/>
		<path d="M64.1,187c-2-0.6-7.4-2.1-8.6-2.2c-0.4,0.7-1.2,2.7-1.5,3.6l-0.8-0.1c0.3-0.9,1.2-3.9,1.8-6c0.7-2.3,1.5-5.8,1.7-6.5
			l0.7,0.4c-0.2,0.9-0.4,2.8-0.7,4.3c1.1,0.5,6.1,1.9,8.9,2.7l1.3,0.4c4.6,1.3,11.3,3.1,12.1,3.2c1.2-4.2,1.1-7.3,0.6-8.9
			c-1-0.9-2.7-1.8-3.6-2.4l0.1-0.9c2.9,1.6,6.5,3.3,11,5.1l-0.4,0.8c-0.5-0.1-3.1-1.1-4.1-1.3c-0.3,0.8-2.6,8.3-3.1,10.2
			c-0.5,1.8-1.3,5-1.5,6l-0.7-0.3c0.1-0.5,0.6-3,0.6-3.9c-1.5-0.6-8.3-2.5-11.7-3.5L64.1,187z"/>
		<path d="M81.7,171.7c-3.6,1.4-6.4,1.2-9.6-0.2c-6.8-2.8-10.6-11-6.7-20.4c1.5-3.6,3.3-6.3,6.7-8.3c3.1-1.9,7-1.9,10.2-0.6
			c8.4,3.5,11.1,12.1,7.6,20.5C88.5,166.2,86.2,169.9,81.7,171.7z M83,147.4c-7.2-3-14.5-0.2-16.9,5.5c-2,4.7-0.9,11.1,6.1,14.1
			c6.1,2.6,14.2,0.1,17-6.5C91.2,155.6,88.5,149.7,83,147.4z"/>
		<path d="M86.4,136.3c-2.2-1.5-7.1-4.5-8.4-5.2c-0.9,0.9-1.7,2.1-2.4,3l-0.7-0.3c0.6-1,4.3-7,5.6-9c4-6,7.1-5.2,8.6-4.3
			c0.9,0.6,1.6,1.1,2.4,2.7c1,2.3,0.8,4.8,0.6,6.1l0.1,0.1c2.5-2.7,6.8-4.5,10.1-2.4c3.5,2.3,4,6.8,1.2,11c-0.3,0.4-1,1.4-1.8,2.5
			c-0.8,1-1.6,2.1-2,2.8c-0.4,0.7-2.4,3.8-3,4.8l-0.6-0.5c0.4-0.7,1.4-2.7,1.7-3.5c-2-1.6-6.6-4.6-9.3-6.4L86.4,136.3z M89.3,133.5
			c0.6-1,1.5-2.6,1.4-4.4c-0.1-1.7-1.1-3.3-2.7-4.3c-2.6-1.7-5.5-1.3-7.2,1.2c-0.3,0.5-0.6,1-0.6,1.4c0.3,0.3,4.6,3.2,7.4,5
			L89.3,133.5z M91.9,135.2c2.6,1.7,7.4,4.5,7.9,4.7c1-0.4,1.9-1.4,2.3-2c1.9-2.9,1.1-5.2-1-6.6c-2-1.3-5.2-1.6-7.6-0.2
			c-1.5,0.8-2.7,2.3-3.1,3.1L91.9,135.2z"/>
		<path d="M117.9,117.6c0.8-1.1,1.5-2.1,2.1-3.2c-1.9-0.8-9.6-3.9-10.8-4.2c-0.9,1-4.5,5.6-5.3,6.8c0.2,0.5,4.3,6.7,6.2,8.8
			c0.8-0.5,1.7-1.4,2.5-2.1l0.7,0.4c-0.8,0.8-3.1,3.3-3.8,4.2c-0.6,0.7-2.2,2.7-2.7,3.4l-0.5-0.6c0.6-0.9,1.2-1.9,1.7-2.8
			c-0.9-2.6-11.2-21.3-12-22.6c-0.7,0.5-1.6,1.3-2.3,1.9l-0.6-0.5c0.8-0.8,2.9-3.1,3.3-3.6c1-1.2,3.4-4.1,4.1-4.9l0.5,0.6
			c-0.6,0.8-1.1,1.7-1.5,2.5c1.5,0.7,7.3,3,11.2,4.5c2.9,1.1,9.1,3.4,12.7,4.3c0.9-0.7,1.7-1.4,2.5-2.1l0.7,0.4
			c-0.4,0.3-2.9,3.1-4.2,4.6c-0.7,0.8-3.4,4.1-4,4.9L117.9,117.6z M97.2,105.2L97.2,105.2c1.7,3.1,5,9.2,5.7,10.3l5.2-5.8
			C105.7,108.7,99.1,106.1,97.2,105.2z"/>
		<path d="M117.2,95.8c-1.4-1.5-5.3-5.7-6.3-6.4c-0.7,0.4-2.5,1.7-3.2,2.3l-0.6-0.5c0.7-0.6,3.1-2.7,4.8-4.2
			c1.8-1.7,4.4-4.2,4.8-4.7l0.4,0.7c-0.6,0.7-1.8,2.2-2.8,3.3c0.7,1,4.3,4.9,6.3,7l0.9,1c3.3,3.5,8.1,8.7,8.8,9.2
			c3.2-3,4.8-5.7,5.2-7.4c-0.4-1.3-1.4-3-1.9-4l0.5-0.7c1.7,2.9,3.8,6.2,6.8,10.2l-0.7,0.4c-0.4-0.4-2.1-2.5-2.8-3.3
			c-0.6,0.5-6.6,5.8-8,7.2c-1.3,1.3-3.8,3.6-4.5,4.4l-0.4-0.7c0.4-0.4,2.1-2.3,2.5-3c-1-1.3-5.8-6.5-8.3-9.2L117.2,95.8z"/>
		<path d="M155.1,63.2c-0.4-0.6-1.5-1.9-1.9-2.4c-1.5-0.9-5.8-1.2-9.7,1.5c-5.5,3.8-6.3,10.2-3,14.9c4.1,5.9,12.4,7.6,18.8,3.2
			c2.3-1.6,4.8-3.8,6.1-6.6l0.5,1.6c-0.3,1.1-2.5,4.4-7.3,7.7c-1.1,0.8-4.5,2.9-7.8,3.4c-5.3,0.8-10-1.1-12.7-5
			c-2.9-4.2-2.9-8.8-1.4-12.4c1.7-4.3,4.3-6.6,7.3-8.7c2.7-1.8,5.9-3.2,6.9-3.6c-0.1-0.5-1.1-2.7-1.2-3.1l0.6-0.6
			c1.8,3.7,3.8,6.9,5.8,9.8L155.1,63.2z"/>
		<path d="M167.9,71.7c-3.7-1.4-5.6-3.5-7.1-6.6c-3.2-6.7-0.5-15.3,8.8-19.7c3.6-1.7,6.7-2.5,10.6-1.7c3.6,0.7,6.5,3.3,8,6.4
			c3.9,8.2,0.2,16.5-8.1,20.5C176.7,72.2,172.6,73.5,167.9,71.7z M185.3,54.5c-3.4-7.1-10.8-9.9-16.3-7.3c-4.6,2.2-8.2,7.7-4.9,14.6
			c2.9,6,10.5,9.7,17.1,6.6C185.9,66.1,187.8,59.9,185.3,54.5z"/>
		<path d="M218.4,53.9c0.5-0.2,3-1.3,3.7-1.6c-0.5-1.3-8.4-16.1-9.6-18.6l-0.1,0c-0.3,2.4-2,21.4-2.4,23.7
			c-1.7-1.9-13.7-17.3-14.5-18.5l-0.1,0c0.7,5.6,1.7,16,3.2,20.5c0.7-0.1,2.7-0.4,3.3-0.5l0.4,0.7c-0.5,0.1-4.6,1.3-5.3,1.5
			c-0.9,0.3-2.7,0.9-3.8,1.3l0-0.8c0.6-0.3,1.6-0.8,2.3-1.2c0.1-2.4-1.5-20.9-1.8-24c-1,0.2-3.2,0.5-3.6,0.6l-0.4-0.7
			c0.5-0.1,3.2-0.8,5.1-1.4c1.5-0.5,4.3-1.4,5.2-1.8L200,34c-0.9,0.4-1.9,1-2.5,1.3c2,2.9,9.8,13,11.7,15.3c0.4-2.3,2-18.7,1.8-19.5
			c-0.7,0-1.9,0.2-2.5,0.2l-0.4-0.7c1.1-0.3,3.5-0.9,4.8-1.3c1.1-0.3,4-1.3,4.8-1.6l0.1,0.8c-0.5,0.2-2.1,1-2.8,1.4
			c1.9,3.7,10.2,18.9,11.5,20.9c0.9-0.1,2.4-0.3,3.1-0.4l0.4,0.7c-1.2,0.3-3.3,0.9-5,1.4c-1.6,0.5-5.4,1.8-6.4,2.1L218.4,53.9z"/>
		<path d="M236.4,36.3c0.4,3.1,1.4,11.5,1.7,12.5c0.9,0,3.5,0,4.7-0.1l0.3,0.7c-1.2,0.1-5.3,0.5-6.9,0.7c-1.8,0.2-5.2,0.7-6.3,0.9
			l0.1-0.8c0.5-0.1,2.9-0.7,3.8-1c0-1.6-0.9-9.3-1.4-12.7l-0.2-1.5c-0.1-1.2-1-7.8-1.3-9c-0.7-0.2-3.1-0.1-3.9,0l-0.2-0.7
			c1.1-0.1,6.4-0.8,8-1c4-0.5,7-0.5,8.9,0c3.4,1,4,3.1,4.1,4c0.3,2.5-0.5,4.4-1.8,6.1c-2.1,2.7-5.9,4.1-7.2,4.5l0-0.9
			c1.3-0.5,5.5-2.3,4.8-7.8c-0.3-2.2-1.6-3.9-3.5-4.6c-1.3-0.4-3.2-0.4-4.8-0.2c0,1.1,0.6,6.2,0.9,9.3L236.4,36.3z"/>
		<path d="M254.4,32.5c-0.1-2.1-0.4-7.8-0.6-8.9c-0.8-0.1-3-0.3-3.9-0.3l-0.1-0.8c0.9,0,4.1-0.1,6.3-0.2c2.5-0.1,6-0.4,6.7-0.5
			l-0.1,0.8c-0.9,0.1-2.8,0.5-4.3,0.7c-0.1,1.2,0.1,6.4,0.3,9.4l0.1,1.3c0.2,4.8,0.6,11.8,0.8,12.6c4.4-0.2,7.3-1.3,8.6-2.3
			c0.5-1.3,0.9-3.2,1.1-4.2l0.9-0.2c-0.6,3.3-1.1,7.2-1.3,12.1l-0.9-0.1c0-0.5,0-3.3,0-4.3c-0.8,0-8.7,0.2-10.7,0.3
			c-1.8,0.1-5.2,0.3-6.2,0.5l0.1-0.8c0.5-0.1,3.1-0.4,3.9-0.7c0.1-1.6-0.3-8.7-0.4-12.3L254.4,32.5z"/>
		<path d="M279.7,35.1c-0.2,4.8-0.4,10.9-0.3,11.6c0.9,0.3,3.1,0.6,3.8,0.7l0.2,0.8c-0.8-0.1-4.6-0.3-6.9-0.4
			c-1.2,0-4.6-0.1-5.7-0.1l0.2-0.8c0.6,0,3.1-0.2,3.9-0.4c0.2-1.5,0.5-8.3,0.7-11.9l0.1-2.2c0-1.2,0.3-8.1,0.2-9.3
			c-0.7-0.2-3.1-0.6-3.8-0.7l-0.2-0.8c0.7,0.1,4.1,0.3,7,0.4c1.9,0.1,5,0.1,5.7,0.1l-0.2,0.8c-0.7,0-2.5,0.3-3.9,0.4
			c-0.2,0.7-0.4,5-0.6,9.5L279.7,35.1z"/>
		<path d="M299.2,49.3c1.3,0.1,2.6,0.1,3.8,0.1c-0.4-2-1.8-10.1-2.2-11.3c-1.3-0.2-7.1-0.8-8.5-0.8c-0.3,0.5-3.3,7.1-4.1,9.8
			c0.9,0.4,2.1,0.7,3.1,1l0,0.8c-1.1-0.2-4.4-0.8-5.5-1c-0.9-0.1-3.4-0.4-4.2-0.5l0.2-0.7c1.1,0.1,2.2,0,3.2,0
			c1.7-2.1,11.9-20.6,12.7-21.9c-0.8-0.3-1.9-0.7-2.8-0.9l0.1-0.8c1.1,0.2,4.1,0.8,4.7,0.9c1.5,0.2,5.2,0.7,6.3,0.8l-0.2,0.7
			c-1,0-2,0-2.8,0c0.2,1.7,1.3,7.7,2.1,11.7c0.6,3,1.9,9.4,3.1,12.9c1,0.4,2.1,0.7,3.1,1l0,0.8c-0.4-0.1-4.1-0.8-6-1.1
			c-1.1-0.2-5.2-0.7-6.2-0.8L299.2,49.3z M298.7,25.5L298.7,25.5c-1.7,3.1-5,9-5.6,10.1l7.6,1.3C300.3,34.4,299,27.6,298.7,25.5z"/>
		<path d="M316,26.4c2,0.5,5.3,1.5,8.1,2.2c0.4,1.4,4.7,12.5,5.1,13.3c0.6,1.3,4.1,9.8,4.9,11.1c1.2-3.9,5-16.2,4.9-18.2
			c-0.7-0.4-2.4-1.2-3.4-1.6l0.1-0.8c0.6,0.3,4.4,1.5,5.2,1.8c0.8,0.2,3.7,1.1,4.5,1.2l-0.4,0.7c-0.5-0.1-1.8-0.2-2.8-0.3
			c-0.8,1.2-2.6,6.1-3,7.2c-0.6,1.6-5.5,16.2-6.1,17.6c-0.7-1.3-6.9-15.6-7.5-16.8c-0.3-0.7-4.5-10.9-5.2-12.6
			c-0.3,0.7-5.6,19.2-5.6,20.6c0.5,0.3,3,1.4,3.7,1.7l-0.1,0.8c-0.6-0.3-4.2-1.5-5.1-1.8c-1-0.3-3.8-1.1-4.8-1.3l0.3-0.7
			c1,0.2,2.2,0.4,3.1,0.4c1.1-1.3,7.6-20.8,7.9-22c-0.8-0.4-2.4-1.1-3.7-1.6L316,26.4z"/>
		<path d="M368.6,55.4c0.3-0.6,0.9-2.2,1.1-2.9c0.1-1.8-1.9-5.6-6.2-7.7c-6.1-2.9-12-0.3-14.4,4.9c-3.1,6.5-0.3,14.5,6.7,17.9
			c2.5,1.2,5.7,2.2,8.8,1.9l-1.1,1.2c-1.1,0.3-5.1,0-10.3-2.4c-1.2-0.6-4.8-2.4-6.9-5c-3.3-4.2-4.1-9.2-2.1-13.5
			c2.2-4.6,6.1-6.9,10-7.5c4.6-0.7,7.9,0.3,11.2,1.9c2.9,1.4,5.8,3.5,6.6,4.2c0.4-0.3,1.8-2.3,2.1-2.6l0.8,0.2
			c-2.2,3.4-4.1,6.8-5.6,10L368.6,55.4z"/>
		<path d="M374.4,63.2c1.9-2.8,5.1-7.8,5.6-8.8c-0.5-0.5-2.2-2-2.9-2.6l0.3-0.7c0.7,0.5,1.7,1.3,2.7,2c1,0.7,2,1.4,2.7,1.9
			c1,0.7,8.3,5.6,9.2,5.9c0.3-0.3,0.8-0.8,1.2-1.3l0.8,0.4c-0.6,0.5-4.2,5.1-4.9,6l-0.5-0.7c0.1-0.2,1.1-1.6,1.5-2.2
			c0-1.3-4.4-4.9-6.1-6c-0.4,0.4-4.5,6.3-5.8,8.1l-0.4,0.6c2.7,1.8,5.8,3.6,6.7,3.8c0.5-0.4,0.9-0.7,1.2-1.1l0.7,0.4
			c-0.5,0.5-3.9,4.4-4.7,5.2l-0.4-0.6c0.5-0.6,1-1.4,1.5-2c-0.6-1.1-2.9-3-5.6-4.7l-0.4,0.6c-1.3,1.9-5.7,8.7-6.2,9.7
			c3.1,2.1,6.2,3.8,8.1,4c1.1-0.9,1.9-1.7,2.5-2.3l0.8,0.3c-0.8,0.8-4.7,5-5.8,6.5l-0.6-0.6c0.6-0.8,0.9-1.4,1.2-1.9
			c-0.8-0.8-7.6-5.5-9.5-6.8c-1.1-0.7-3.5-2.3-4.8-3l0.6-0.5c0.5,0.3,2.5,1.4,3.5,1.7c0.5-0.5,4.4-6.1,6.7-9.5L374.4,63.2z"/>
		<path d="M416.9,92.5c0.5-0.5,1.6-1.8,1.9-2.4c0.6-1.6,0-5.9-3.4-9.2c-4.8-4.6-11.2-4-15.2,0.1c-4.9,5.2-4.9,13.6,0.7,19
			c2,1.9,4.7,3.9,7.6,4.6l-1.5,0.8c-1.1-0.1-4.8-1.6-9-5.5c-1-0.9-3.8-3.8-4.9-6.9c-1.8-5-1-10,2.3-13.4c3.5-3.7,7.9-4.6,11.8-3.9
			c4.5,0.8,7.3,2.8,10,5.4c2.3,2.2,4.3,5.1,4.9,6c0.5-0.2,2.4-1.6,2.8-1.8l0.7,0.5c-3.2,2.5-6,5.1-8.4,7.6L416.9,92.5z"/>
		<path d="M420.8,101.5c2.5-2.2,6.8-6.1,7.6-6.9c-0.3-0.6-1.6-2.5-2.1-3.2l0.5-0.6c0.5,0.7,1.3,1.6,2.1,2.6c0.8,0.9,1.6,1.9,2.1,2.5
			c0.8,0.9,6.4,7.4,7.3,8c0.4-0.2,0.9-0.5,1.5-0.9l0.7,0.5c-0.7,0.4-5.3,3.7-6.2,4.4l-0.3-0.8c0.2-0.2,1.5-1.2,2-1.7
			c0.4-1.2-3-5.8-4.2-7.2c-0.5,0.3-5.9,4.8-7.5,6.2l-0.6,0.5c2.1,2.4,4.6,4.9,5.4,5.3c0.5-0.2,1-0.5,1.4-0.8l0.6,0.5
			c-0.6,0.3-4.8,3.1-5.8,3.8l-0.2-0.7c0.6-0.5,1.3-1.1,1.9-1.6c-0.3-1.2-2-3.5-4.1-5.9l-0.6,0.5c-1.7,1.5-7.6,6.8-8.4,7.6
			c2.4,2.8,4.9,5.2,6.7,5.8c1.2-0.5,2.2-1.1,3-1.5l0.7,0.5c-1,0.5-5.7,3.5-7.2,4.6l-0.4-0.7c0.7-0.6,1.2-1.1,1.7-1.5
			c-0.6-0.9-5.8-7.2-7.3-8.9c-0.8-0.9-2.8-3.1-3.8-4.1l0.7-0.4c0.4,0.4,2,1.9,2.9,2.5c0.6-0.3,5.8-4.7,8.8-7.3L420.8,101.5z"/>
		<path d="M436.7,118.5c1.1-0.7,6.9-4.7,7.4-5.2c-0.2-0.6-1.4-2.8-1.8-3.5l0.6-0.5l4.4,6.5c1.9,2.9,4.3,6.5,4.9,9.1
			c0.4,2,0,3.8-1.7,4.9c-1.9,1.3-5.7,1-8.6-0.4c-0.5,0.8-5.2,11.1-6.4,16.4l-1.1-1.2c-0.5-2.8,3.4-17.1,3.7-18
			c-0.9-1.1-1.8-2.3-2.1-2.8l-0.8,0.5c-2,1.3-6.6,4.5-7.9,5.6c0.2,0.6,1.3,2.8,1.7,3.5l-0.6,0.5c-0.5-0.8-2.5-3.9-3.4-5.3
			c-0.8-1.2-3-4.4-3.6-5l0.7-0.3c0.3,0.4,1.8,2.2,2.6,2.9c1-0.5,6.9-4.4,10.1-6.6L436.7,118.5z M436.9,123.3
			c0.7,1.1,1.7,2.3,3.1,3.3c1.4,1,4.2,2.2,7.2,0.2c1.9-1.3,3.1-4.7-0.4-9.9c-1.3,0.7-6.7,4.3-8.9,5.8L436.9,123.3z"/>
		<path d="M453.9,145.8c2.4-1.3,7.2-4,7.9-4.5c-2.8-5.2-4.9-7.1-5.9-7.7c-0.9,0.1-2.2,0.6-3.4,1l-0.6-0.6c1.6-0.7,5.9-2.5,8.5-3.9
			l0.3,0.8c-0.4,0.3-1.4,0.9-2,1.3c0.2,0.6,3,6.3,5.3,10.7c2.5,4.7,5.8,10.3,6.2,10.7c0.5-0.1,1.6-0.4,2.3-0.6l0.6,0.7
			c-0.9,0.2-8,3-9,3.5l-0.2-0.9c1.3-0.6,2.7-1.3,3.4-1.7c0.2-1.2-1.5-6.1-3.2-9.3c-0.9,0.4-5.7,2.9-8.1,4.1l-1.5,0.8
			c-2.9,1.5-8.4,4.6-10.9,6.1c0.2,0.7,1.5,3.8,1.8,4.5l-0.6,0.5c-0.4-0.8-2.3-4.7-3.3-6.5c-0.8-1.5-3-5.4-3.5-6.3l0.8-0.2
			c0.5,0.7,2.2,3.2,2.7,3.9c2.6-1.3,8.3-4.2,11.1-5.7L453.9,145.8z"/>
		<path d="M462.8,169.4c-4.4,2-10,4.5-10.6,4.9c0.2,0.9,0.9,3,1.1,3.7l-0.6,0.5c-0.3-0.8-1.8-4.3-2.7-6.4c-0.5-1.1-2-4.2-2.5-5.2
			l0.8-0.2c0.3,0.6,1.6,2.7,2.1,3.4c1.5-0.5,7.7-3.2,11-4.7l2-0.9c1.1-0.5,7.4-3.3,8.5-4c-0.2-0.7-0.9-3.1-1.1-3.7l0.6-0.5
			c0.2,0.7,1.5,3.8,2.7,6.4c0.8,1.7,2.1,4.6,2.4,5.1l-0.8,0.1c-0.4-0.6-1.4-2.2-2-3.3c-0.7,0.2-4.6,1.9-8.8,3.7L462.8,169.4z"/>
		<path d="M468.1,179.1c3.2-1,8.8-3,9.7-3.4c0.1-0.5-0.5-2.8-0.7-3.9l0.7-0.4c0.3,1.3,1.4,4.8,1.9,6.2c0.5,1.5,3.4,10.4,3.9,11
			c0.5,0,1.8-0.2,2.6-0.4l0.4,0.7c-1.7,0.3-6.2,1.4-8.8,2.3l0-0.9c0.6-0.2,2.1-0.8,2.7-1.1c0.8-1.7-0.6-7.4-1.2-9.2
			c-0.5,0-6.9,2-9.5,2.8l-0.8,0.3c0.6,1.7,2.2,6.2,2.9,7.2c0.6,0,1.5-0.1,2.2-0.2l0.4,0.7c-1.8,0.3-5.4,1.2-8,2l0-0.8
			c0.7-0.2,1.9-0.7,2.9-1.2c0.4-1.1-0.8-5.4-1.5-7.4l-1.1,0.3c-2.9,1-9.1,3.1-10,3.6c0.2,1.4,0.6,3.2,0.8,4l-0.7,0.4
			c-0.3-1.3-1.2-4.1-2-6.5c-0.7-2-1.6-4.6-2.1-5.8l0.8-0.1c0.2,0.4,1.1,2.7,1.7,3.6c0.8-0.2,6.6-2,10.5-3.3L468.1,179.1z"/>
		<path d="M474.2,205.5c-4.7,1-10.6,2.3-11.3,2.6c0,0.9,0.2,3.1,0.3,3.9l-0.7,0.3c-0.1-0.8-0.8-4.6-1.3-6.8c-0.3-1.2-1-4.5-1.3-5.6
			l0.8,0c0.2,0.6,1,3,1.3,3.7c1.5-0.2,8.2-1.6,11.7-2.3l2.1-0.5c1.2-0.3,7.9-1.7,9.1-2.1c0-0.7-0.2-3.2-0.3-3.9l0.7-0.3
			c0.1,0.7,0.7,4,1.3,6.8c0.4,1.8,1.1,4.9,1.3,5.5l-0.8,0c-0.2-0.7-0.9-2.4-1.3-3.7c-0.7,0-4.9,0.9-9.3,1.8L474.2,205.5z"/>
		<path d="M484.3,235.4c0.7-0.1,2.4-0.4,3-0.6c1.5-0.9,3.7-4.6,3.2-9.3c-0.8-6.6-6.1-10.2-11.8-9.6c-7.1,0.8-12.4,7.4-11.5,15.1
			c0.3,2.8,1.2,6,3,8.4l-1.6-0.3c-0.8-0.8-2.7-4.3-3.4-10c-0.2-1.3-0.5-5.3,0.6-8.5c1.8-5,5.6-8.3,10.2-8.9c5-0.6,9,1.5,11.6,4.5
			c3,3.5,3.9,6.8,4.3,10.5c0.4,3.2,0.1,6.7,0,7.7c0.5,0.2,2.9,0.3,3.3,0.4l0.3,0.8c-4.1-0.1-7.9,0.2-11.3,0.5L484.3,235.4z"/>
		<path d="M467.9,255.8c0.1,1.3,0.3,2.6,0.6,3.7c1.9-0.7,9.7-3.5,10.8-4.1c0-1.3-0.4-7.2-0.6-8.5c-0.5-0.2-7.5-2.1-10.4-2.4
			c-0.2,0.9-0.4,2.2-0.5,3.2l-0.8,0.2c0.1-1.1,0.1-4.5,0.1-5.6c0-1-0.1-3.4-0.2-4.3l0.8,0.1c0.1,1.1,0.3,2.2,0.6,3.2
			c2.4,1.3,22.4,8.3,23.8,8.8c0.2-0.8,0.3-2,0.4-2.9l0.8-0.1c-0.1,1.1-0.1,4.2-0.1,4.8c0,1.6,0.2,5.2,0.3,6.3l-0.8-0.1
			c-0.1-1-0.3-2-0.5-2.8c-1.6,0.5-7.4,2.6-11.2,4.1c-2.8,1.1-9,3.5-12.2,5.2c-0.2,1.1-0.3,2.2-0.5,3.3l-0.8,0.1
			c0.1-0.4,0.1-4.2,0-6.1c0-1.1-0.2-5.2-0.3-6.2L467.9,255.8z M491.3,251.3L491.3,251.3c-3.3-1.2-9.7-3.5-11-3.8l0,7.8
			C482.7,254.4,489.3,251.9,491.3,251.3z"/>
		<path d="M482.1,275.1c2.7,0,8.2-0.1,9-0.2c0-5.9-0.9-8.5-1.6-9.5c-0.8-0.3-2.2-0.5-3.5-0.7l-0.2-0.8c1.8,0.1,6.4,0.6,9.3,0.5
			l-0.1,0.8c-0.5,0-1.6,0.1-2.4,0.2c-0.1,0.6-0.3,6.9-0.3,11.9c0,5.3,0.3,11.7,0.4,12.3c0.4,0.1,1.6,0.4,2.3,0.5l0.1,0.9
			c-0.8-0.2-8.4-1-9.5-1.1l0.2-0.8c1.5,0.1,3,0.1,3.8,0.1c0.7-0.9,1.5-6,1.5-9.6c-1-0.1-6.4-0.2-9-0.2l-1.7,0
			c-3.2,0-9.4,0.1-12.4,0.2c-0.1,0.7-0.4,4-0.5,4.7l-0.8,0.1c0.1-0.9,0.1-5.2,0.1-7.2c0-1.7-0.1-6.1-0.2-7.1l0.8,0.2
			c0.1,0.8,0.4,3.8,0.5,4.7c2.9,0.1,9.2,0.2,12.4,0.1L482.1,275.1z"/>
		<path d="M479.5,299.8c-4.7,0-10.7,0-11.5,0.1c-0.2,0.9-0.4,3.1-0.5,3.8l-0.8,0.2c0.1-0.8,0.2-4.6,0.2-6.8c0-1.2-0.1-4.6-0.1-5.6
			l0.8,0.1c0,0.6,0.3,3.1,0.5,3.8c1.5,0.2,8.2,0.2,11.8,0.2l2.1,0c1.2,0,8,0,9.2-0.1c0.1-0.7,0.4-3.1,0.5-3.8l0.8-0.2
			c-0.1,0.7-0.2,4-0.2,6.9c0,1.8,0,5,0.1,5.6l-0.8-0.2c-0.1-0.7-0.4-2.5-0.5-3.8c-0.7-0.1-4.9-0.2-9.4-0.2L479.5,299.8z"/>
		<path d="M469.9,309.7c2.7-2.7,5.4-3.6,8.9-3.6c7.3,0,13.9,5.9,14,16c0,3.9-0.6,7-2.9,10.2c-2.1,2.9-5.7,4.5-9.1,4.5
			c-9,0.1-14.8-6.7-14.9-15.8C465.9,317.4,466.5,313.2,469.9,309.7z M478.1,332.4c7.8,0,13.3-5.5,13.3-11.6c0-5-3.4-10.5-11-10.5
			c-6.6,0-13,5.4-12.9,12.5C467.4,328.1,472.2,332.4,478.1,332.4z"/>
		<path d="M491.9,338.8c0,2,0,5.5,0.1,8.3c-1.3,0.8-10.5,7.9-11.2,8.5c-1,0.9-8.2,6.6-9.2,7.7c4,0.1,16.8,0.3,18.7-0.4
			c0.2-0.7,0.5-2.6,0.6-3.7l0.8-0.2c-0.1,0.7-0.2,4.6-0.2,5.4c0,0.8,0,3.8,0.1,4.6l-0.8-0.2c-0.1-0.5-0.3-1.8-0.5-2.8
			c-1.4-0.5-6.5-0.7-7.7-0.8c-1.7-0.1-17-0.7-18.4-0.9c1-1.1,13-10.9,13.9-11.8c0.6-0.5,9.1-7.3,10.5-8.4c-0.7-0.1-19.8,0-21.2,0.4
			c-0.2,0.5-0.5,3.3-0.6,4l-0.8,0.1c0.1-0.7,0.2-4.4,0.2-5.4c0-1.1,0-3.9-0.1-5l0.8,0.1c0.1,1,0.2,2.2,0.5,3
			c1.5,0.6,21.9,1.4,23.1,1.4c0.2-0.8,0.4-2.6,0.5-4L491.9,338.8z"/>
		<path d="M281.9,380.7v34.4h-2.7c-3.3-9.4-8.2-16.6-14.7-21.5c-6.5-4.9-13.7-7.4-21.4-7.4c-7.4,0-13.6,2.1-18.5,6.2
			c-4.9,4.1-8.4,9.8-10.5,17.2c-2,7.4-3.1,14.9-3.1,22.6c0,9.4,1.1,17.6,3.4,24.6c2.2,7.1,5.9,12.3,10.9,15.6c5,3.3,10.9,5,17.8,5
			c2.4,0,4.8-0.3,7.3-0.8c2.5-0.5,5.1-1.2,7.7-2.2v-20.3c0-3.8-0.3-6.3-0.8-7.5c-0.5-1.1-1.6-2.1-3.3-3.1c-1.7-0.9-3.7-1.4-6.1-1.4
			h-2.6v-2.7h48.2v2.7c-3.7,0.2-6.2,0.7-7.6,1.5c-1.4,0.7-2.5,2-3.3,3.7c-0.4,0.9-0.7,3.1-0.7,6.7v20.3c-6.3,2.8-12.9,4.9-19.8,6.3
			c-6.8,1.4-14,2.1-21.3,2.1c-9.4,0-17.2-1.3-23.4-3.8c-6.2-2.5-11.7-5.8-16.5-9.9c-4.8-4.1-8.5-8.7-11.1-13.9
			c-3.4-6.6-5.1-14.1-5.1-22.3c0-14.7,5.2-27.1,15.7-37.3c10.5-10.1,23.7-15.2,39.6-15.2c4.9,0,9.4,0.4,13.3,1.2
			c2.1,0.4,5.6,1.5,10.4,3.3c4.8,1.8,7.6,2.7,8.5,2.7c1.4,0,2.6-0.5,3.8-1.5c1.2-1,2.2-2.8,3.2-5.6H281.9z"/>
		<path d="M388.5,380.5v33.7h-2.8c-2.1-8.8-6.1-15.5-11.9-20.2c-5.8-4.7-12.3-7-19.7-7c-6.1,0-11.7,1.7-16.8,5.2
			c-5.1,3.5-8.8,8.1-11.2,13.7c-3,7.2-4.6,15.2-4.6,24.1c0,8.7,1.1,16.6,3.3,23.8c2.2,7.1,5.7,12.5,10.4,16.2
			c4.7,3.7,10.8,5.5,18.4,5.5c6.2,0,11.8-1.3,17-4c5.1-2.7,10.5-7.3,16.2-13.8v8.4c-5.5,5.7-11.2,9.8-17.2,12.4
			c-6,2.6-12.9,3.8-20.9,3.8c-10.5,0-19.8-2.1-27.9-6.2c-8.1-4.2-14.4-10.1-18.8-17.9c-4.4-7.8-6.6-16.1-6.6-24.9
			c0-9.3,2.4-18.1,7.3-26.4c4.9-8.3,11.5-14.8,19.8-19.4c8.3-4.6,17.1-6.9,26.5-6.9c6.9,0,14.2,1.5,21.8,4.4
			c4.4,1.7,7.3,2.6,8.5,2.6c1.5,0,2.9-0.6,4-1.7c1.1-1.1,1.9-2.9,2.2-5.3H388.5z"/>
		<path d="M491.1,380.5v33.7h-2.8c-2.1-8.8-6.1-15.5-11.9-20.2c-5.8-4.7-12.3-7-19.7-7c-6.1,0-11.7,1.7-16.8,5.2
			c-5.1,3.5-8.8,8.1-11.2,13.7c-3,7.2-4.6,15.2-4.6,24.1c0,8.7,1.1,16.6,3.3,23.8c2.2,7.1,5.7,12.5,10.4,16.2
			c4.7,3.7,10.8,5.5,18.4,5.5c6.2,0,11.8-1.3,17-4c5.1-2.7,10.5-7.3,16.2-13.8v8.4c-5.5,5.7-11.2,9.8-17.2,12.4
			c-6,2.6-12.9,3.8-20.9,3.8c-10.5,0-19.8-2.1-27.9-6.2c-8.1-4.2-14.4-10.1-18.8-17.9c-4.4-7.8-6.6-16.1-6.6-24.9
			c0-9.3,2.4-18.1,7.3-26.4c4.9-8.3,11.5-14.8,19.8-19.4c8.3-4.6,17.1-6.9,26.5-6.9c6.9,0,14.2,1.5,21.8,4.4
			c4.4,1.7,7.3,2.6,8.5,2.6c1.5,0,2.9-0.6,4-1.7c1.1-1.1,1.9-2.9,2.2-5.3H491.1z"/>
		<path class="st5" d="M209.3,499.2c-26.3,0-46.9-10.5-72.1-25.3c-11.2-6.6-32.8-22.3-47.1-35.3C52.6,404.9,34,349.7,34,349.7v216.2
			h0h455.3h0.9v-66.8H209.3z"/>
		<path class="st1" d="M297.9,232.5c-56.5,52.2-102.5,121.6-102.5,121.6s-3.5-25.5-26.2-51.2c-22.7-25.8-56.1,1.1-69.4,14.4
			c34.7,7.9,63,82.3,74.4,113.8c0.1,0.2,0.4,0.4,0.7,0.5c0.2-17.1,6.6-31.8,18.8-43.6c11.5-11.1,25.8-17.2,42.6-18
			c2.7-6.1,25.7-56.7,72.3-110.7c80.5-93.4,132.8-101,132.8-101C407.7,154.4,341.7,192,297.9,232.5z"/>
		<path d="M194.8,476.6c-5.7-4.9-10.3-10.6-13.6-16.9c-4.2-8.1-6.3-17.2-6.3-27c0-0.6,0-1.2,0-1.8c-0.5-0.2-0.7-0.2-0.7-0.2
			s-42.2-19.3-73-68.4c-38.2-59.9-30-117.2-26.7-132.6c0.6-2.6,1-6.5,1-6.5s-6.8,11-20.7,8.5c-10.6-1.9-15.7-11.7-15.7-11.7
			s-1.1,3.6-1.5,5.9c-2.7,15.9-11.1,83.9,31.4,155.6c49.6,83.6,130.7,99.7,130.7,99.7c0.1-0.2,0.2-0.3,0.4-0.5
			C198.2,479.3,196.5,478,194.8,476.6z"/>
	</g>
	<g>
		<path class="st2" d="M69.3,550.9h-3.9v-36.9h3.9V550.9z"/>
		<path class="st2" d="M76.4,549.4v-5.1c0.5,0.5,1.1,1,1.9,1.4c0.7,0.4,1.5,0.8,2.3,1c0.8,0.3,1.6,0.5,2.4,0.7
			c0.8,0.2,1.6,0.2,2.2,0.2c2.4,0,4.1-0.5,5.3-1.5c1.2-1,1.8-2.4,1.8-4.3c0-1-0.2-1.9-0.6-2.6c-0.4-0.7-0.9-1.4-1.6-2
			c-0.7-0.6-1.5-1.2-2.4-1.7c-0.9-0.6-2-1.1-3-1.8c-1.1-0.7-2.2-1.3-3.2-2c-1-0.7-1.9-1.4-2.6-2.2c-0.7-0.8-1.3-1.7-1.7-2.7
			c-0.4-1-0.6-2.2-0.6-3.6c0-1.7,0.3-3.1,1-4.4c0.7-1.2,1.5-2.3,2.6-3.1c1.1-0.8,2.3-1.4,3.7-1.8c1.4-0.4,2.8-0.6,4.2-0.6
			c3.2,0,5.6,0.4,7.1,1.3v4.9c-1.9-1.5-4.4-2.3-7.5-2.3c-0.8,0-1.7,0.1-2.5,0.3c-0.8,0.2-1.6,0.5-2.2,1c-0.7,0.4-1.2,1-1.6,1.7
			c-0.4,0.7-0.6,1.6-0.6,2.6c0,0.9,0.2,1.8,0.5,2.4c0.3,0.7,0.8,1.3,1.4,1.9c0.6,0.6,1.4,1.1,2.2,1.6c0.9,0.5,1.9,1.1,3,1.7
			c1.2,0.7,2.3,1.3,3.4,2.1s2,1.5,2.8,2.4c0.8,0.9,1.4,1.8,1.9,2.9c0.5,1.1,0.7,2.3,0.7,3.7c0,1.8-0.3,3.4-1,4.6
			c-0.6,1.3-1.5,2.3-2.6,3.1c-1.1,0.8-2.3,1.4-3.7,1.7c-1.4,0.4-2.9,0.5-4.5,0.5c-0.5,0-1.2,0-1.9-0.1c-0.8-0.1-1.5-0.2-2.3-0.4
			c-0.8-0.2-1.5-0.4-2.3-0.7C77.4,550.1,76.9,549.8,76.4,549.4z"/>
		<path class="st2" d="M116.2,551.5c-4.7,0-8.4-1.7-11.2-5.2s-4.2-7.9-4.2-13.4c0-5.9,1.4-10.7,4.3-14.2c2.9-3.5,6.8-5.3,11.7-5.3
			c4.5,0,8.2,1.7,11,5.1c2.8,3.4,4.2,7.9,4.2,13.4c0,6-1.4,10.8-4.3,14.3C124.8,549.8,121,551.5,116.2,551.5z M116.5,517.4
			c-3.5,0-6.3,1.4-8.4,4.2c-2.2,2.8-3.2,6.5-3.2,11s1.1,8.2,3.2,11c2.1,2.8,4.8,4.2,8.2,4.2c3.6,0,6.5-1.3,8.5-4
			c2.1-2.6,3.1-6.3,3.1-11.1c0-4.9-1-8.6-3-11.3C122.8,518.7,120,517.4,116.5,517.4z"/>
		<path class="st2" d="M164.7,523.7c0-1.1-0.2-2.1-0.5-3c-0.3-0.8-0.7-1.5-1.3-2.1c-0.5-0.6-1.2-1-1.9-1.2s-1.5-0.4-2.4-0.4
			c-0.7,0-1.5,0.1-2.2,0.3c-0.7,0.2-1.4,0.5-2.1,0.9c-0.7,0.4-1.3,0.9-1.9,1.4c-0.6,0.5-1.2,1.2-1.7,1.8V517c1.1-1.1,2.2-2,3.5-2.6
			c1.3-0.6,2.9-0.9,4.8-0.9c1.3,0,2.6,0.2,3.7,0.7c1.1,0.4,2.1,1.1,3,1.9c0.8,0.8,1.5,1.9,2,3.1c0.5,1.2,0.7,2.6,0.7,4.2
			c0,1.5-0.1,2.8-0.4,4c-0.3,1.2-0.8,2.3-1.4,3.3c-0.6,1-1.4,2-2.3,3c-0.9,1-2,1.9-3.2,2.9c-1.5,1.2-2.8,2.3-3.8,3.2
			s-1.8,1.7-2.4,2.5c-0.6,0.8-1,1.5-1.2,2.3s-0.4,1.6-0.4,2.6h16.4v3.8h-20.3v-1.8c0-1.6,0.2-3,0.5-4.2c0.3-1.2,0.8-2.3,1.5-3.4
			c0.7-1.1,1.6-2.2,2.8-3.2c1.1-1.1,2.5-2.3,4.2-3.6c1.2-1,2.2-1.9,3-2.8c0.8-0.9,1.4-1.7,1.9-2.6c0.5-0.9,0.8-1.8,1-2.7
			C164.6,525.7,164.7,524.7,164.7,523.7z"/>
		<path class="st2" d="M190,523.7c0-1.1-0.2-2.1-0.5-3c-0.3-0.8-0.7-1.5-1.3-2.1c-0.5-0.6-1.2-1-1.9-1.2s-1.5-0.4-2.4-0.4
			c-0.7,0-1.5,0.1-2.2,0.3c-0.7,0.2-1.4,0.5-2.1,0.9c-0.7,0.4-1.3,0.9-1.9,1.4c-0.6,0.5-1.2,1.2-1.7,1.8V517c1.1-1.1,2.2-2,3.5-2.6
			c1.3-0.6,2.9-0.9,4.8-0.9c1.3,0,2.6,0.2,3.7,0.7c1.1,0.4,2.1,1.1,3,1.9c0.8,0.8,1.5,1.9,2,3.1c0.5,1.2,0.7,2.6,0.7,4.2
			c0,1.5-0.1,2.8-0.4,4c-0.3,1.2-0.8,2.3-1.4,3.3c-0.6,1-1.4,2-2.3,3c-0.9,1-2,1.9-3.2,2.9c-1.5,1.2-2.8,2.3-3.8,3.2
			s-1.8,1.7-2.4,2.5c-0.6,0.8-1,1.5-1.2,2.3s-0.4,1.6-0.4,2.6h16.4v3.8h-20.3v-1.8c0-1.6,0.2-3,0.5-4.2c0.3-1.2,0.8-2.3,1.5-3.4
			c0.7-1.1,1.6-2.2,2.8-3.2c1.1-1.1,2.5-2.3,4.2-3.6c1.2-1,2.2-1.9,3-2.8c0.8-0.9,1.4-1.7,1.9-2.6c0.5-0.9,0.8-1.8,1-2.7
			C189.9,525.7,190,524.7,190,523.7z"/>
		<path class="st2" d="M221,532.3c0,3.1-0.2,5.8-0.7,8.2c-0.5,2.4-1.2,4.4-2.2,6c-0.9,1.6-2.1,2.9-3.5,3.7c-1.4,0.8-2.9,1.3-4.7,1.3
			c-1.7,0-3.1-0.4-4.4-1.2c-1.3-0.8-2.4-2-3.3-3.6c-0.9-1.6-1.6-3.5-2-5.7s-0.7-4.9-0.7-7.8c0-3.2,0.2-6.1,0.7-8.5
			c0.5-2.5,1.2-4.5,2.1-6.2c0.9-1.7,2.1-2.9,3.5-3.8s3-1.3,4.8-1.3C217.6,513.5,221,519.8,221,532.3z M217.2,532.8
			c0-10.5-2.2-15.7-6.7-15.7c-4.7,0-7,5.3-7,16c0,10,2.3,14.9,6.9,14.9C214.9,548,217.2,542.9,217.2,532.8z"/>
		<path class="st2" d="M246.4,532.3c0,3.1-0.2,5.8-0.7,8.2c-0.5,2.4-1.2,4.4-2.2,6c-0.9,1.6-2.1,2.9-3.5,3.7
			c-1.4,0.8-2.9,1.3-4.7,1.3c-1.7,0-3.1-0.4-4.4-1.2c-1.3-0.8-2.4-2-3.3-3.6c-0.9-1.6-1.6-3.5-2-5.7s-0.7-4.9-0.7-7.8
			c0-3.2,0.2-6.1,0.7-8.5c0.5-2.5,1.2-4.5,2.1-6.2c0.9-1.7,2.1-2.9,3.5-3.8s3-1.3,4.8-1.3C242.9,513.5,246.4,519.8,246.4,532.3z
			 M242.5,532.8c0-10.5-2.2-15.7-6.7-15.7c-4.7,0-7,5.3-7,16c0,10,2.3,14.9,6.9,14.9C240.2,548,242.5,542.9,242.5,532.8z"/>
		<path class="st2" d="M271.7,532.3c0,3.1-0.2,5.8-0.7,8.2c-0.5,2.4-1.2,4.4-2.2,6c-0.9,1.6-2.1,2.9-3.5,3.7
			c-1.4,0.8-2.9,1.3-4.7,1.3c-1.7,0-3.1-0.4-4.4-1.2c-1.3-0.8-2.4-2-3.3-3.6c-0.9-1.6-1.6-3.5-2-5.7s-0.7-4.9-0.7-7.8
			c0-3.2,0.2-6.1,0.7-8.5c0.5-2.5,1.2-4.5,2.1-6.2c0.9-1.7,2.1-2.9,3.5-3.8s3-1.3,4.8-1.3C268.2,513.5,271.7,519.8,271.7,532.3z
			 M267.8,532.8c0-10.5-2.2-15.7-6.7-15.7c-4.7,0-7,5.3-7,16c0,10,2.3,14.9,6.9,14.9C265.6,548,267.8,542.9,267.8,532.8z"/>
		<path class="st2" d="M313.2,549.4c-2.4,1.4-5.5,2.2-9.1,2.2c-4.7,0-8.4-1.7-11.2-5.1c-2.8-3.4-4.2-7.8-4.2-13.3
			c0-5.9,1.6-10.7,4.8-14.3c3.2-3.6,7.2-5.4,12-5.4c3.1,0,5.7,0.5,7.8,1.5v4.6c-2.4-1.5-5-2.2-7.8-2.2c-3.8,0-6.8,1.4-9.2,4.2
			c-2.3,2.8-3.5,6.6-3.5,11.3c0,4.5,1.1,8.1,3.3,10.7c2.2,2.7,5.1,4,8.6,4c3.3,0,6.2-0.8,8.6-2.5V549.4z"/>
		<path class="st2" d="M338.3,538.8h-16.6c0.1,2.9,0.8,5.2,2.1,6.8c1.3,1.6,3.2,2.4,5.6,2.4c2.6,0,5.1-1,7.3-2.9v4
			c-2.1,1.7-4.8,2.5-8.2,2.5c-3.3,0-5.9-1.2-7.8-3.6c-1.9-2.4-2.8-5.8-2.8-10.1c0-4.1,1-7.4,3.1-10s4.6-3.9,7.7-3.9s5.5,1.1,7.1,3.3
			c1.7,2.2,2.5,5.3,2.5,9.3V538.8z M334.4,535.3c0-2.4-0.5-4.3-1.6-5.7c-1-1.4-2.5-2-4.3-2c-1.8,0-3.3,0.7-4.5,2.1
			c-1.2,1.4-2,3.3-2.3,5.6H334.4z"/>
		<path class="st2" d="M356.2,528.9c-0.7-0.6-1.6-0.8-2.8-0.8c-1.6,0-2.9,0.8-4,2.5c-1.1,1.7-1.6,4-1.6,6.9v13.4H344v-26.3h3.8v5.4
			h0.1c0.5-1.9,1.4-3.3,2.5-4.3s2.3-1.6,3.7-1.6c1,0,1.7,0.1,2.2,0.4V528.9z"/>
		<path class="st2" d="M372.6,550.7c-0.9,0.5-2.1,0.8-3.5,0.8c-4.1,0-6.2-2.6-6.2-7.7v-15.6h-4v-3.6h4v-6.4l3.8-1.4v7.8h5.9v3.6
			h-5.9V543c0,1.8,0.3,3,0.8,3.8c0.5,0.8,1.4,1.1,2.7,1.1c0.9,0,1.8-0.3,2.5-0.9V550.7z"/>
		<path class="st2" d="M379.5,517.9c-0.7,0-1.2-0.3-1.7-0.8c-0.5-0.5-0.7-1.2-0.7-2s0.2-1.4,0.7-2c0.5-0.5,1-0.8,1.7-0.8
			c0.7,0,1.3,0.3,1.8,0.8c0.5,0.5,0.7,1.2,0.7,2c0,0.8-0.2,1.4-0.7,1.9C380.8,517.7,380.2,517.9,379.5,517.9z M381.4,550.9h-3.8
			v-26.3h3.8V550.9z"/>
		<path class="st2" d="M400.6,515.7c-0.7-0.5-1.6-0.7-2.5-0.7c-2.6,0-3.9,1.9-3.9,5.6v4.1h5.5v3.6h-5.5v22.7h-3.7v-22.7h-4v-3.6h4
			v-4.3c0-2.8,0.7-4.9,2.1-6.5c1.4-1.6,3.2-2.4,5.3-2.4c1.1,0,2.1,0.2,2.7,0.5V515.7z"/>
		<path class="st2" d="M405.6,517.9c-0.7,0-1.2-0.3-1.7-0.8c-0.5-0.5-0.7-1.2-0.7-2s0.2-1.4,0.7-2c0.5-0.5,1-0.8,1.7-0.8
			c0.7,0,1.3,0.3,1.8,0.8c0.5,0.5,0.7,1.2,0.7,2c0,0.8-0.2,1.4-0.7,1.9C406.9,517.7,406.3,517.9,405.6,517.9z M407.5,550.9h-3.8
			v-26.3h3.8V550.9z"/>
		<path class="st2" d="M434,538.8h-16.6c0.1,2.9,0.8,5.2,2.1,6.8c1.3,1.6,3.2,2.4,5.6,2.4c2.6,0,5.1-1,7.3-2.9v4
			c-2.1,1.7-4.8,2.5-8.2,2.5c-3.3,0-5.9-1.2-7.8-3.6c-1.9-2.4-2.8-5.8-2.8-10.1c0-4.1,1-7.4,3.1-10s4.6-3.9,7.7-3.9s5.5,1.1,7.1,3.3
			c1.7,2.2,2.5,5.3,2.5,9.3V538.8z M430.1,535.3c0-2.4-0.5-4.3-1.6-5.7c-1-1.4-2.5-2-4.3-2c-1.8,0-3.3,0.7-4.5,2.1
			c-1.2,1.4-2,3.3-2.3,5.6H430.1z"/>
		<path class="st2" d="M459.7,550.9H456v-4.5h-0.1c-1.7,3.4-4.4,5.1-8.1,5.1c-3,0-5.3-1.2-7.1-3.5c-1.8-2.4-2.7-5.6-2.7-9.6
			c0-4.4,1-7.8,2.9-10.5c2-2.6,4.6-3.9,7.8-3.9c3.2,0,5.6,1.4,7,4.3h0.1V512h3.8V550.9z M456,539v-3.9c0-2.1-0.6-3.9-1.9-5.4
			c-1.3-1.5-2.8-2.2-4.8-2.2c-2.3,0-4.1,0.9-5.4,2.8c-1.3,1.9-2,4.5-2,7.8c0,3,0.6,5.4,1.9,7.2c1.3,1.8,3,2.6,5.1,2.6
			c2.1,0,3.8-0.8,5.1-2.5C455.3,543.8,456,541.6,456,539z"/>
	</g>
</g>
</svg>
